<svg id="TC" xmlns="http://www.w3.org/2000/svg" viewBox="0 0 1024 1024"><defs><style>.cls-1{fill:#030203;}.cls-10,.cls-11,.cls-2,.cls-4,.cls-5,.cls-6,.cls-7,.cls-8,.cls-9{fill:none;stroke-width:2px;}.cls-2{stroke:#0f7f5c;}.cls-3{fill:#030516;}.cls-4{stroke:#13dfcd;}.cls-5{stroke:#0dbcfa;}.cls-6{stroke:#0bdad8;}.cls-7{stroke:#0acdf6;}.cls-8{stroke:#0ae2d6;}.cls-9{stroke:#12e7cb;}.cls-10{stroke:#13f4ad;}.cls-11{stroke:#13a9fc;}.cls-12{fill:#1bf9a2;}.cls-13{fill:#16a0fd;}.cls-14{fill:#0befb7;}.cls-15{fill:#0ac5f8;}</style></defs><path class="cls-1" d="M1024,0V1024H0V0Z"/><path class="cls-2" d="M843.61,466.18l-68,.24a.7.7,0,0,1-.69-.6,219.22,219.22,0,0,0-11.64-44.58A266.07,266.07,0,0,0,644,282.1a261.92,261.92,0,0,0-116.64-33,1,1,0,0,0-1,.92v36.07a1,1,0,0,0,1,1c49.4,1.32,97.1,20.69,135.08,52,43.18,35.64,71.73,86.25,78.49,141.94a.87.87,0,0,0,.87.77l96.83-.56"/><path class="cls-2" d="M843.25,501.51l-62.8.17a.47.47,0,0,0-.48.48h0v11.16a.54.54,0,0,0,.54.54h0l57.68-.14"/><path class="cls-2" d="M192,529.66l52.79-.07a.71.71,0,0,0,.72-.71h0V515.42a1,1,0,0,0-.95-.95h0q-25.36-.09-44.59-.05c-4.26,0-6,2-9.22,5.16-1.47,1.43-3.72,1.82-6.73,1.19"/><path class="cls-12" d="M344,360.12h-.39a1.21,1.21,0,0,1-.71-.26,27.26,27.26,0,0,0-13.26-5.73,92,92,0,0,0-29-.29,257.67,257.67,0,0,1,48.83-49.54,267.24,267.24,0,0,1,98.21-48,246,246,0,0,1,49.88-7.16.58.58,0,0,1,.59.55v36a1.16,1.16,0,0,1-1.07,1.15c-15.82,1.13-30.44,3.05-45.9,7.31a228.34,228.34,0,0,0-77.12,38.05A191,191,0,0,0,344,360.12Z"/><path class="cls-12" d="M843.61,466.18l38.45-.05a.67.67,0,0,1,.67.68v13.91a.67.67,0,0,1-.66.66l-43.53-.06-96.83.56a.87.87,0,0,1-.87-.77c-6.76-55.69-35.31-106.3-78.49-141.94-38-31.34-85.68-50.71-135.08-52a1,1,0,0,1-1-1v-36a1,1,0,0,1,1-1h.05a262.67,262.67,0,0,1,187.62,90.73,265,265,0,0,1,48.32,81.36,219.22,219.22,0,0,1,11.64,44.58.7.7,0,0,0,.69.6Z"/><path class="cls-12" d="M279.5,391.05c3.34,2.29,6.49,5.5,9.46,7.44a157.1,157.1,0,0,0,18.52,10.32l0,0,3.78,2.37a.4.4,0,0,1,.15.14c.24.34.23.62,0,.83q-1.1,1.76-3.46,6.49a227.87,227.87,0,0,0-24.26,94.41.86.86,0,0,1-.85.82H249a1.19,1.19,0,0,1-1.19-1.19v-.05a309.93,309.93,0,0,1,5.64-49.8A267.82,267.82,0,0,1,279.5,391.05Z"/><path class="cls-13" d="M707.55,502.58a.74.74,0,0,1-.74.72l-38.27.1-42.58.07q-19.11,0-38.2.52a65,65,0,0,0-14.43,1.81,31.53,31.53,0,0,0-6.51,2.95l-22.24,3q-6.72,1.6-13.36,2.93-7.87,1.59-13.3,3.19-11.88,3.49-23.6,7.54a16.44,16.44,0,0,1-2.84.5,5.74,5.74,0,0,0-3.1.28,124.21,124.21,0,0,0-12.09,4.64,15.67,15.67,0,0,0-11.07,6l-4.42,3-4.08.92c-8.87.21-17.12-1.53-25.71-3.07a95.65,95.65,0,0,1-11.53-2.8c-8.86-2.75-17.43-4.46-27-9.06q-16.18-7.77-19.32-9.64-11.06-6.62-17.66-11.38A112.72,112.72,0,0,1,337.08,488a46,46,0,0,1-4.09-5.5c-1.9-3-3.89-6.57-6.84-8.8-3.09-14-3.91-26-4.87-41.88-.63-7.56-2.78-14.5-8.77-19.51a1.26,1.26,0,0,0-1.09-.13c.27-.21.28-.49,0-.83a.4.4,0,0,0-.15-.14l-3.78-2.37,0,0A157.1,157.1,0,0,1,289,398.49c-3-1.94-6.12-5.15-9.46-7.44a30.6,30.6,0,0,1,1.87-5.67q9.45-18.19,13.75-24l5.58-7.54a92,92,0,0,1,29,.29,27.26,27.26,0,0,1,13.26,5.73,1.21,1.21,0,0,0,.71.26H344c-.2,0-.29.18-.27.53a.76.76,0,0,0,.15.41l8.33,11.21a.65.65,0,0,0,.92.12.67.67,0,0,0,.14-.15,47.94,47.94,0,0,1,10.66-11.07,7.87,7.87,0,0,1,4.81-1.37q14.12,0,36.85.07a.54.54,0,0,1,.53.54v0a12,12,0,0,1-.67,3,63.11,63.11,0,0,1-25.14,31.91c-5.85,3.86-13.19,6.7-19.52,9.7-4.3,2-6.07,4.43-4.73,9.38q7.38,27.33,35.35,33.19c16.6,3.47,34.1.38,50.05-4.16l23.59-6.7a319.36,319.36,0,0,1,57.68-12.28A315.07,315.07,0,0,1,653.4,436.56a104.66,104.66,0,0,1,30.78,15.09C700.73,463.66,708,482.56,707.55,502.58Z"/><path class="cls-12" d="M456.72,540.69a9.82,9.82,0,0,0-4.45,3.25,15.7,15.7,0,0,0-1.41,2.35.37.37,0,0,0-.05.11s0,0,0,0h0l6-3.66a134.78,134.78,0,0,0-14.19,14.41,1.62,1.62,0,0,1-1.63.52l-24-6.21a.31.31,0,0,0-.28.07l-3.33,3.34a.36.36,0,0,1-.51,0,.39.39,0,0,1-.11-.27V552.4a2.35,2.35,0,0,0-1.55-2.21q-15.51-5.57-25.78-10.15a4.19,4.19,0,0,0-2.22-.58c-.66.19-1.13.81-1.4,1.86a1.2,1.2,0,0,1-1.78.75l-16.64-9.6a1.35,1.35,0,0,0-1.84.49h0l-3.11,5.39a.56.56,0,0,1-.76.21.69.69,0,0,1-.13-.11c-16.54-17.86-26.23-41.23-31.42-64.75,3,2.23,4.94,5.84,6.84,8.8a46,46,0,0,0,4.09,5.5,112.72,112.72,0,0,0,18.4,16.74q6.61,4.75,17.66,11.38,3.14,1.88,19.32,9.64c9.59,4.6,18.16,6.31,27,9.06a95.65,95.65,0,0,0,11.53,2.8C439.6,539.16,447.85,540.9,456.72,540.69Z"/><path class="cls-12" d="M843.25,501.51l.19,11.69a.55.55,0,0,1-.55.55l-4.7,0-57.68.14a.54.54,0,0,1-.54-.54h0V502.16a.47.47,0,0,1,.48-.48h0Z"/><path class="cls-14" d="M566.82,508.75q-4,4.66-1.32,9.8a13.42,13.42,0,0,0,6.34,6.06c9.78,4.63,18.43.18,26.38-5.69a4.08,4.08,0,0,1,2.45-.84l103.55-.24a.48.48,0,0,1,.48.5.68.68,0,0,1,0,.14c-7.74,23.52-25.1,43.22-44.93,57.57l2.16-4.78a1.64,1.64,0,0,0-.83-2.17l0,0a14.29,14.29,0,0,0-5.1-1c-23.18-.57-35.68-.26-52.16-4.56q-7.54-2-25.73-8A206.67,206.67,0,0,0,553,549q-8.26-1.63-25.75-2.7-9.22-.57-31.68-2.3c-16.26-1.26-27.26,4.73-40.11,13.65a177.77,177.77,0,0,1,35.92-31.07c.33-.22.38-.46.13-.72a16.44,16.44,0,0,0,2.84-.5q11.71-4,23.6-7.54,5.43-1.61,13.3-3.19,6.64-1.33,13.36-2.93Z"/><path class="cls-12" d="M192,529.66l-44.85,0a.73.73,0,0,1-.73-.73h0v-7.22a.85.85,0,0,1,.84-.84h0l36.76-.08c3,.63,5.26.24,6.73-1.19,3.24-3.15,5-5.15,9.22-5.16q19.22,0,44.59.05a1,1,0,0,1,.95.95h0v13.46a.71.71,0,0,1-.72.71h0Z"/><path class="cls-12" d="M775.44,516.91a.91.91,0,0,1,.9.89A241.21,241.21,0,0,1,763.43,598a271.86,271.86,0,0,1-65.32,104.17c-34.9,34.93-78.92,59.14-126.89,71.3A213.5,213.5,0,0,1,527,779.9a.8.8,0,0,1-.83-.77V742.84a.6.6,0,0,1,.57-.6,203.47,203.47,0,0,0,60.16-12.32c53.82-19.73,98.19-57.31,126-107.51,17.93-32.38,27-67.53,28.21-104.61a.92.92,0,0,1,.92-.89Z"/><path class="cls-15" d="M476.29,530.79l-11.07,6A15.67,15.67,0,0,1,476.29,530.79Z"/><path class="cls-14" d="M460.8,539.77l-3.93,3-6,3.66s0,0,0,0h0a.37.37,0,0,1,.05-.11,15.7,15.7,0,0,1,1.41-2.35,9.82,9.82,0,0,1,4.45-3.25Z"/><path class="cls-12" d="M659.75,576.05q-2.13,1.61-4.5,3.18a218.88,218.88,0,0,1-62.64,28.6c-18.21,5-38.85,8.45-58.56,8.64q-11.38.1-18.41.12a.26.26,0,0,1-.26-.28.27.27,0,0,1,0-.15c3.46-4.69,7.6-9.42,10.57-13.75a165.07,165.07,0,0,0,13.54-24,1.06,1.06,0,0,1,.74-.59c3.27-.71,6.05-1.34,8.36-1.9,8.46-2,19.58-6.61,25.55-13.52a.49.49,0,0,0-.06-.69.5.5,0,0,0-.39-.11l-28.17,4.23a.72.72,0,0,1-.82-.62.67.67,0,0,1,0-.37,24.6,24.6,0,0,0,2-9.25,4.08,4.08,0,0,0-5.14-4.13,6.57,6.57,0,0,0-4.78,4c-10.9,29.29-28,55.66-51.78,76.1a121.91,121.91,0,0,1-24.76,16.74c-23.31,11.7-49.78,16.54-76.14,17a.61.61,0,0,1-.62-.6.63.63,0,0,1,.09-.33q14.63-23.35,28.64-46.62c12-19.95,26.64-41.7,43.15-60.11,12.85-8.92,23.85-14.91,40.11-13.65q22.45,1.72,31.68,2.3,17.47,1.07,25.75,2.7a206.67,206.67,0,0,1,25.08,6.49q18.18,6,25.73,8c16.48,4.3,29,4,52.16,4.56a14.29,14.29,0,0,1,5.1,1,1.65,1.65,0,0,1,.89,2.15l0,0Z"/><path class="cls-12" d="M498,779a.58.58,0,0,1-.59.59h0a253.88,253.88,0,0,1-86.81-18.49,260.78,260.78,0,0,1-94.48-65c-24.3-26.14-42.41-57-54.5-90.45a237.42,237.42,0,0,1-11.51-45.69,130.65,130.65,0,0,1-1.41-16.35.49.49,0,0,1,.48-.51h34.07a.71.71,0,0,1,.71.67,128.53,128.53,0,0,0,2,14.67c13.2,72.11,60.8,134.79,128.34,164.31,26.71,11.67,53.49,18.6,82.8,19.56a1,1,0,0,1,.94,1Z"/><path class="cls-12" d="M432,566.49a.44.44,0,0,1,.33.53.5.5,0,0,1-.05.13l-9.49,16.45a.84.84,0,0,1-1,.36,141.35,141.35,0,0,1-36.32-19.22q-2.38-1.74-12-9.74c-2.22-1.86-2.46-2.83-1-5.25a30.79,30.79,0,0,1,2.82-4.1,1.21,1.21,0,0,1,1.49-.31,228.08,228.08,0,0,0,31.52,13.57C417.42,562,424.43,564.72,432,566.49Z"/></svg> 